<svg id="Layer_2" data-name="Layer 2" xmlns="http://www.w3.org/2000/svg" viewBox="0 0 366.16 387.21"><defs><style>.cls-1{fill:#fff;}</style></defs><path class="cls-1" d="M451.38,593.9c-11.41-23-18.75-46.45-20.42-71.49-4-59.42,15.79-109.74,59.49-149.84C593.19,278.32,761,331.11,791.9,467.11c9.28,40.88,4.81,80.49-12.78,118.49-2.31,5-2.33,7.94,1.84,11.89,10.82,10.26,10.66,11.19,2.14,24C714.67,724.08,570,743,478.4,660.68c-12.93-11.6-23.78-25.68-34.63-39.38-8.27-10.45-7.42-13.1,1.81-22.28C447.41,597.21,449.44,595.6,451.38,593.9Zm331.26,14.91c-3.71-3.22-6.5-5.94-9.58-8.26-5.61-4.22-6.22-8.29-2.81-15C788,550.89,793,514,785.74,475.88c-17.76-93.74-106.69-155.73-199.69-141-112,17.79-179.07,137-134,240.73,6.32,14.51,8.42,24.43-5.48,33.82-.18.12-.19.47-.69,1.77,36.66,55.67,87.93,88.82,155.4,92.52C679.14,708,738.58,674.38,782.64,608.81Z" transform="translate(-430.46 -324.9)"/><path class="cls-1" d="M736.45,611.81c-2.44,3.5-3.78,6.09-5.73,8.1A162.86,162.86,0,0,1,523.4,642.82c-80.51-53.09-96.16-168-32.77-240.5,49.57-56.73,130-72.4,197-38.37,9.85,5,9.74,5.09,3.23,14.51-15.81,22.87-31.6,45.77-47.1,68.86-3.2,4.77-5.87,6.52-11.88,4.45-23.24-8-44.15-2.73-61.1,14.5-16.47,16.75-22,37.38-13.83,59.9,8.46,23.35,25.8,37,50.59,39.68,7.2.79,14.88-.79,22.06-2.5,5-1.2,8-.75,10.79,3.86,7.85,13,16.23,25.7,24.08,38.71,2.42,4,5.16,5.65,9.9,5.58,17.56-.26,35.13-.12,52.69-.09C729.58,611.41,732.07,611.61,736.45,611.81ZM718.74,619c-16.73,0-32.22-.22-47.69.12-5.64.12-9-1.93-11.84-6.65-7.32-12.11-15.19-23.88-22.58-36-2.34-3.81-4.1-5.45-9.45-4.55a87.62,87.62,0,0,1-25.92.43c-37.87-5.11-63.44-45-53.08-82,10.24-36.6,45.05-56.52,82.12-47.26,2.29.57,6.41-.41,7.62-2.12,16-22.65,31.69-45.56,47.45-68.43C628.31,338.8,537,348.25,486.26,420.69c-48.4,69.15-30.59,166,39.83,214.44C594.05,681.89,677.77,662.74,718.74,619Z" transform="translate(-430.46 -324.9)"/><path class="cls-1" d="M742,451.23c-12.08,11.43-20.9,13.7-31.19,8.62A23.32,23.32,0,0,1,697.91,437c1-10.89,7.64-17.57,22.59-22-3.47-3.83-6.62-7.51-10-11-3.2-3.29-6.64-6.37-10.44-10l10.33-15c9.56,9.79,19.43,18.47,27.63,28.51,40.81,49.9,47.15,119.59,16.61,176.4-6.78,12.62-6.78,12.62-22.29,11.16C752.81,548.48,761.48,501.12,742,451.23Z" transform="translate(-430.46 -324.9)"/><path class="cls-1" d="M658.12,507.25c0,26.21-19.17,45.48-45.33,45.56-26.54.08-45.82-19.27-45.75-45.92.07-26,19.49-45.21,45.73-45.17S658.12,481.06,658.12,507.25Zm-21-.2a24.51,24.51,0,1,0-24.48,24.72A24.62,24.62,0,0,0,637.09,507.05Z" transform="translate(-430.46 -324.9)"/><path class="cls-1" d="M690,453.06a10.8,10.8,0,1,1-10.73,10.87A11,11,0,0,1,690,453.06Z" transform="translate(-430.46 -324.9)"/></svg>