<svg id="Layer_2" data-name="Layer 2" xmlns="http://www.w3.org/2000/svg" viewBox="0 0 669.49 756.4"><defs><style>.cls-1{fill:#007a93;}</style></defs><path class="cls-1" d="M731.91,375.15c3.07,11,10.19,18.17,20.2,23.5,4.7,2.49,8.45,7.15,11.92,11.41,2.31,2.82,4.33,4,7.28,1.92,3.65-2.53,7.63-4.94,10.47-8.25,17.65-20.61,38.64-37.35,61.19-52.05,8.52-5.55,18.77-8.44,28.15-12.72,4.22-1.93,8.24-4.31,12.35-6.48l-.63-2.07-10.4,2.85c.13-2.73.28-5.67.46-9.28l-3.28,1.26c-2-6.92-3.13-14.46-9.17-19.9a14.75,14.75,0,0,1-3.05-4.26c-2-4.05-4.45-7-10.18-3.68,1.11-4.27,1.95-7.52,2.38-9.16,2.13-1.76,4-2.51,4.3-3.68,2.14-8.14,5.57-15.23,12.45-20.67,2.5-2,3.35-5.44-1-8-4.61-2.72-8.5-6.64-13-9.56-2.11-1.37-5.85-.85-7.28-2.52-5.54-6.49-12.88-6.18-20.27-7.5-4.63-.82-9.26-4.87-12.67-8.58-4.58-5-9.9-3.32-14-1.69-4.72,1.87-8.32,3.53-14,2.67-6.09-.93-12.76,1.77-19.15,3-2.65.52-5.23,1.43-8.25,2.27l2.19,3.49c-2.46,0-4.77.64-6.48-.11-9.22-4-17.77-2.83-26.08,2.4a4.94,4.94,0,0,1-3.28.53C712.72,238.39,707.13,242,704,252c-1.1,3.51-3.32,6.67-4.61,9.17l-19.15,8c3.82-11,7.78-22.82,12.1-34.54,2.27-6.18,4.49-11.82,2.94-19-1.08-5,1.46-10.87,2.4-16.47-4.19-2.61-7-6.16-5.33-11.82.06-.18.15-.45.06-.57-6.29-8.55.46-18.27-2.44-27.11-3.41-18.84,68.5-35.5,102.75-35.5,44.52,0,116.25,6.66,133.57,35.5,3.46,3.84,6.94,7.67,10.38,11.54,4.56,5.13,9.9,9.81,13.44,15.58,5.83,9.48,10.48,19.69,15.63,29.59l-4.88-3.73V226.3l4.72-2.44c-1.21,1.64-2.12,3.72-3.7,4.82-4.67,3.25-4.59,7.79-1.31,10.77,7.63,6.94,4.89,15.69,4.5,23.5-.38,7.56-3,15.25-5.82,22.41A299.77,299.77,0,0,1,945,315.9c-4.36,8.2-9.82,15.82-14,22.52-5.07-2-9.56-5.55-13.3-4.88-8.68,1.56-17.22,4.32-24,11-3.89,3.81-9,6.35-13.63,9.49-.49,2.82-1.07,6.14-1.65,9.46l-1.08-.18c.55-5.85,1.1-11.7,1.75-18.64-2.17-1.87-5.51-2.53-8.95,1a2.76,2.76,0,0,1-1.5.64c-4.09.59-8.52.33-12.23,1.84-18.15,7.35-33.33,19.37-47.46,32.52-9.09,8.46-17.17,18.05-25.25,27.51-6.52,7.63-12.28,15.9-18.65,23.65-.7.85-3.81.86-4.87,0-3.19-2.45-5.71-5.79-8.88-8.27-7.34-5.75-14.88-11.25-22.43-16.73-1.32-1-3.14-2-4.59-1.83-3.8.43-8.83,6.88-9.22,11,3.8,2.36,11.2.11,9.79,8.57h7.27c.3,1.64.55,3,.7,3.88,2.86-.28,6.21-1.61,7.4-.54,3.38,3,5.88,7.06,9,11.05l1.44-5.6,2,.5c-.73,2.41-1.5,4.8-2.17,7.23-.43,1.57-1.24,3.29-.93,4.74a26.17,26.17,0,0,0,2.84,6.92c.68,1.24,2,3,3.08,3,4.67.13,8.69,9.32,13.94,1.13.06-.09.37,0,.83,0,.39,1.14.81,2.34,1.23,3.55l.82-1.25,5.49,2.86c6.35-4.67,7.67-11.66,2.63-14.09,1.91-2,3.47-4.86,5.84-5.93,4.22-1.89,7.67-4.1,9.39-8.56.08-.21,1.13.06,1.64-.12,2.48-.89,4.93-1.86,8-3,1.94-1.41,3.8-3.21,6-4.19,1.08-.47,3.11.25,4.2,1.09.78.6.71,2.29,1,3.27l8.19-4.22v14l3.67-3.92c1.11,3.93,2.09,7.41,3,10.5,3,2.44,6.51-5.33,9.11,1.09,1.42-1,2.69-2.46,4.25-2.9,10.14-2.86,12.78-11.22,13-19.82.19-9.34,2.72-17.69,5.46-26-.92-2.83-2-5.91-1.21-8.48,1.15-4,3.51-7.69,5.42-11.61.32,2.58.65,5.29,1,8l1,.09,2.52-7.54,1.19.07c.41,4.1.81,8.2,1.23,12.45l3.15-2.12a7.86,7.86,0,0,1-1,5.91c-1,1.64-2.69,2.87-3.64,4.53-2.75,4.84.27,8.07,3.48,11.14,2.41,2.3,4.88,3.4,7.27-.09,4.53,7.53,2.89,12.79-4.71,16.17a7.16,7.16,0,0,0-3.49,2.86c-3,6.07-6.75,12-8.32,18.5-4,16.41-16.78,27.56-23.91,42-.14.28-1,.2-3,.55,1.35-5.1,2.42-9.5,3.69-13.84,1.31-4.49,3-8.93-.93-13-7.42,4.51-9.48,8.91-8.61,16.88.22,2-.13,5.63-1.28,6.13-7.45,3.31-11,9.79-14.65,16.32-5.18,9.27-10.45,18.49-15.49,27.84-.54,1-.18,2.95.47,4,3.13,5.31,3,8.86-2.22,11.92-11.35,6.7-16,18.27-21.87,28.92-2.59,4.72-3.22,5.21-6.61,1.42-7-7.82-14.09-15.49-21-23.39-3.37-3.87-6.48-4.38-10.1-.5-6.22,6.69-12.55,13.28-18.71,20-.79.87-.78,2.47-1.23,4l8.06-2.11-.2-.27c1.38,1.88,2.62,3.87,4.15,5.61,9,10.2,18.22,20.26,27.15,30.55,3.24,3.74,5.9,8,8.83,12l-1.29,2.07c-2.06-.78-4.66-1-6.07-2.44-4.49-4.52-8.4-9.62-12.82-14.22-2.09-2.17-4.84-3.71-8.54-6.47V611c-5.21-2.36-4.93-7.18-6.86-10.69-1-1.88-3.33-3.07-5-4.57-.17,2.14-.89,4.4-.4,6.38,7.65,31.16,15.66,62.24,23.17,93.44,7,29.13,13.52,58.39,20.25,87.59-123.62,0-137.48,117.66-469,94.33,113.34-94.33,98.88-154.32,100.29-184.26.9-19,4.9-37.76,10.52-56.09,1.56-5.11,1.81-10.68,2.2-16.08,2.21-30.64,11-59,30.55-83,4.24-5.2,11.69-8.09,18.11-11.11,8.07-3.8,16.69-6.39,24.9-9.92q41.28-17.73,82.42-35.77c19.07-8.34,38.15-16.67,57-25.45,3.38-1.58,5.69-5.41,8.62-8,6.37-5.72,12.83-11.34,19.24-17,1.75-1.55,3.32-3.33,5.2-4.69,5.93-4.32,7.28-10.13,8.61-17.28,2.45-13.23-3.41-25.41-2.42-38.18.18-2.3,1.21-4.53,2-7.14l-3.55-.83c2-10.41,3.69-20.74,6-30.92,1.08-4.64.8-7.07-4.68-7.23a16.6,16.6,0,0,1-7.76-2.05c-6.4-3.85-15.34-2.36-20-10.34-1.57-2.69-3.73.32-3.66,2.59.22,6.54.79,13.07,1,19.61-2.42-10.88-5.8-21.67-1-32.94,2.19-5.12,5.79-8.05,11.32-7.12,6.87,1.16,13.6,3.12,20.45,4.51,2.64.53,5.41.42,10,.73-2.5-4.65-4.08-7.59-6-11.12l-13.63,6.18-.61-1.26c2.27-1.18,4.59-2.26,6.78-3.56,3.4-2,8-2.46,7.93-8.5,0-2.21,3.82-4.47,5.27-6.05,7.56,3.22,14.82,5.8,21.53,9.38,3.59,1.92,8.73,2.57,9.67,8.28.19,1.16,3.36,2.35,5.28,2.6,9,1.19,17.65,3.07,25.58,8.07,2.63,1.67,6.71.93,10.08,1.57,11.24,2.16,22.37,5.13,33.69,6.52,15.89,1.95,27.16,13.55,41.55,18.56,5.39,1.88,6.6,11.87,2.13,15.55-3.3,2.72-7.59,4.42-11.67,6-2.6,1-5.63.84-8.79,1.24.8,1.94,1.41,3.45,2.3,5.61-6.86-.39-8.54,3.2-9.65,9-1.23,6.34-4.27,12.42-7.1,18.34a11,11,0,0,1-11.41,6.58l.06.16,5.67-4.6c-4-1.15-6.62-1.74-9.08-2.62s-5.35-1.6-7.3-3.27c-3.83-3.27-6.91-7.39-13-4.58-1.08.5-3.68-.67-4.64-1.84-3.15-3.83-7.56-7.7-8.38-12.14-1.42-7.58-6.56-11.21-11.81-15-1.35-1-4.65-.29-6.41.72-1.6.93-3.63,3.78-3.22,5,1.66,4.92,4.17,9.56,6.42,14.28.81,1.71,1.77,3.34,2.66,5C732.06,374.08,732,374.62,731.91,375.15Zm-1.23,15.2c-.72-1.75-1.56-4.13-2.65-6.38-2.19-4.54-4.91-8.86-6.71-13.54-3.13-8.13-5.42-16.59-8.72-24.64-1.11-2.7-3.94-5.79-6.53-6.42-2-.48-5.78,2-7.24,4.15-7,10.41-13.53,21.14-20.14,31.8-2.19,3.52-1.58,6.19,2.65,7.71,7.55,2.72,14.74,6.65,23.25,5.8,1.94-.19,4.06,1,6,1.73,4.57,1.62,9.06,3.5,13.69,4.93C728,396.63,730.39,395.2,730.68,390.35ZM714.53,453l-1.84-1.5a19.16,19.16,0,0,1-1.79,1.19,11.74,11.74,0,0,1-2.88,1.23c-.2.05-1.11-1.57-1-1.74a6.46,6.46,0,0,1,2.62-1.9c5.13-1.54,7.11.31,6.36,5.64a14.37,14.37,0,0,0,.28,3.17l1.86.56,3.68-9.33.63.14c-.35,2.94-.69,5.88-1.15,9.74l4-3.06c2.31,4.15,11.79,10,15.45,8.34,2.76-1.25,4.29-5.2,6.37-7.95l-1.53-1.34-2.71,1.36.87-1.56c-4.12-2.74-7.95-6.16-12.42-8.07-8.41-3.59-17.14-6.47-25.84-9.33-4.63-1.52-6.88,1.9-8.17,5.46-.64,1.78.14,4.08.27,6.14l1.53-.2,4-5.58c1.14,5.93.19,12.48,8.07,11.92C712.42,456.21,713.44,454.13,714.53,453Zm.65,34.77,8,2.83c.75-2.08,1.47-4.06,2.18-6l1,.28q1,5.85,2,11.7l.73-.22q1.05-6.14,2.11-12.28l1.73-.46,4.45,6.08c-.54-3-.57-5.62-1.5-7.83-.79-1.86-2.6-3.29-4.11-5.09-4,2.71-9,2.22-14.38,1.6-6.7-.78-13.54-.5-20.47,3.49l10.09,8,3.14-2.3,2.93,6.06Zm16.15-53.34c-3.35-1.62-6.77-2.13-7.84-4-3.7-6.4-9.38-9.25-16.1-10.46a64.73,64.73,0,0,0-12.14-.75c-1.52,0-3,1.19-4.55,1.84,1.47,1,2.81,2.42,4.44,2.89,3.1.88,6.57.68,9.5,1.89,7.16,2.94,14.1,6.39,21.1,9.71C728.8,437,730.9,436.75,731.33,434.4Zm-27.2-100.07,13.19,4.95c-.7-6-1.35-11.57-2.2-18.95Zm81.93,130.82-5.25-4.73-6.6,16.95c7.31-6.23,7.31-6.23,18.49-8.38L781,468.16Zm-23.32,20.63c3.64-5.47.87-9.34-1.75-12.8-2.28-3-5.29-5.69-11.57-3.18C759.75,471.1,762.22,477.45,762.74,485.78ZM718.25,323.53l15-5.53-15.6.75C717.86,320.61,718.11,322.44,718.25,323.53Zm21.63,154.16-1.64.4c.49,2.81,1.16,5.6,1.42,8.43.24,2.62.05,5.28.05,7.92l2.15-.21Z" transform="translate(-302.87 -124.17)"/><path class="cls-1" d="M899.36,783.17c5.83-14.44,9.06-29.4,8.6-45-.18-6.19-.86-12.37-1.53-18.53-2.88-26.38-8.84-52.17-15-77.92-1-4.16-1.92-8.37-3.26-12.42-2.29-6.94-4.57-13.76-.48-20.84.41-.71.05-1.85.05-3.24-8.52.59-11.83,11.61-21.36,10.07,15.41-9.79,20-23.87,17-41.11,3.39,1.19,3.39,1.19,7.66,13.4L886.43,594c10-.33,15.05-7.64,12.09-16.33-8.87-25.95-18.07-51.78-27.28-77.61-1.36-3.82-3.48-7.38-5.26-11.07.44-.15.88-.47,1.06-.35,11.87,7.49,25.8,8,38.8,11.7a183,183,0,0,1,32.43,12.8c9.94,5,14.28,15.62,20,24.62,19.84,31.08,16.82,62.79,2.61,94.86a21.83,21.83,0,0,0-1.87,8.33c-.45,25.69-6.48,34.21-1.12,77.06S899.36,783.17,899.36,783.17Z" transform="translate(-302.87 -124.17)"/><path class="cls-1" d="M729.52,576.44c3.45-5.84,5.42-6.19,9.88-1.79,1.24,1.22,2.55,2.37,3.84,3.54,2.21,2,6,4.12-.31,5.8-.34.09-.23,1.88-.38,3.42l-13.23-11.24Z" transform="translate(-302.87 -124.17)"/><path class="cls-1" d="M839.79,562.73c.47-2.59,1.44-5.22,1.29-7.77-.19-3.29-1.49-6.5-1.93-9.8-.53-4-.66-8.1-1-12.32l-11.44,6.82-1.36-.84c8.68-17.32,17.35-34.65,26.6-53.11,7,8.36,8.55,16.77,7.7,26.44a43.27,43.27,0,0,0-4.74-2.25c-4.33-1.44-6.78.32-6.58,4.94.17,4,.71,8.09,1.19,12.12,1.59,13.16-3.66,24.54-8.32,36.08Z" transform="translate(-302.87 -124.17)"/><path class="cls-1" d="M922.82,369.81c-.58-4.41-1.21-8.81-1.73-13.22-.66-5.66-2.69-6.81-7.66-4.39-3.77,1.83-7.62,3.5-12.59,5.78a82.06,82.06,0,0,1,7.44,4.27c1.8,1.32,3.93,2.83,4.75,4.75,2.23,5.18-.6,9-5.94,7.42A44.35,44.35,0,0,1,893,367.11c-3.84-2.94-2.2-7.24,2.49-9.05,1.47-.57,2.48-2.26,3.79-3.33,4.42-3.61,8.41-8.14,13.41-10.55,8.8-4.23,16.61,1.93,15.71,11.53a67.54,67.54,0,0,1-.91,8.68c-.5,2.13-1.85,4.07-2.82,6.09Z" transform="translate(-302.87 -124.17)"/><path class="cls-1" d="M852,627.86c-1,4.9-1.31,10-3.07,14.61a12.38,12.38,0,0,1-6.59,6.17c-6.73,2.58-13.24,7.14-21,4.58-1.65-.54-3-2.13-4.43-3.24,1.53-1.11,2.93-2.93,4.6-3.2,7-1.17,14.44-2.74,17.92-9.18,2.82-5.22,7.87-6.5,11.17-10.37Z" transform="translate(-302.87 -124.17)"/><path class="cls-1" d="M829.74,591.55l6.93-22C838.66,578.76,836.23,586.91,829.74,591.55Z" transform="translate(-302.87 -124.17)"/></svg>